<svg xmlns="http://www.w3.org/2000/svg" width="334" height="117" viewBox="0 0 334 117">
	<path d="M 5 0.772 C 5 1.197, 8.722 5.247, 13.271 9.772 L 21.542 18 30 18 L 38.458 18 29.500 9 L 20.542 0 12.771 0 C 8.497 0, 5 0.347, 5 0.772 M 51.228 8.271 C 46.703 12.820, 43 16.870, 43 17.271 C 43 17.672, 46.497 18, 50.771 18 L 58.542 18 67.500 9 L 76.458 0 67.957 0 L 59.456 0 51.228 8.271 M 94.999 20.750 L 95 41 100.500 41 L 106 41 106 33.500 L 106 26 113 26 L 120 26 120 33.500 L 120 41 126 41 L 132 41 132 21.093 L 132 1.185 126.415 0.843 C 123.342 0.654, 120.642 0.687, 120.415 0.917 C 120.187 1.146, 120 4.633, 120 8.667 L 120 16 113 16 L 106 16 106 8.593 L 106 1.185 100.499 0.843 L 94.997 0.500 94.999 20.750 M 152.138 1.750 C 151.625 2.712, 149.632 7.325, 147.710 12 C 145.787 16.675, 142.366 24.962, 140.107 30.415 C 137.848 35.869, 136 40.481, 136 40.665 C 136 40.849, 138.610 41, 141.799 41 C 147.519 41, 147.616 40.952, 148.864 37.500 L 150.129 34 157.880 34 L 165.630 34 167.299 37.500 C 168.934 40.928, 169.091 41, 174.997 41 L 181.027 41 179.412 37.250 C 176.060 29.467, 168.810 12.265, 166.347 6.250 L 163.787 0 158.429 0 C 154.347 0, 152.848 0.417, 152.138 1.750 M 177.617 2.500 C 177.946 3.600, 180.946 12.712, 184.284 22.750 L 190.353 41 195.456 41 L 200.560 41 203.819 31.246 C 208.497 17.245, 208.262 17.282, 212.462 29.886 L 216.165 41 221.348 41 L 226.531 41 233.179 21 L 239.828 1 233.957 1 L 228.086 1 225.043 10.861 C 223.369 16.284, 222 21.309, 222 22.028 C 222 24.911, 220.323 21.333, 216.916 11.180 L 213.332 0.500 208.483 0.500 L 203.634 0.500 200.101 11.250 C 198.158 17.162, 196.292 22, 195.954 22 C 195.616 22, 193.912 17.315, 192.167 11.589 L 188.994 1.177 183.007 0.839 C 177.415 0.522, 177.059 0.632, 177.617 2.500 M 244.993 19.250 C 240.489 29.838, 236.575 39.063, 236.295 39.750 C 235.921 40.668, 237.390 41, 241.828 41 C 247.826 41, 247.880 40.974, 249.136 37.500 L 250.402 34 258.252 34 L 266.102 34 267.564 37.500 C 269.005 40.947, 269.117 41, 275.013 41 C 278.306 41, 281 40.841, 281 40.648 C 281 40.454, 277.478 32.016, 273.174 21.898 C 268.869 11.779, 265.058 2.712, 264.705 1.750 C 264.201 0.376, 262.892 -0, 258.623 -0 L 253.183 0 244.993 19.250 M 310.500 0.850 C 304.628 2.759, 303 5.708, 303 14.434 L 303 21 308.500 21 L 314 21 314 15.500 C 314 10.602, 313.773 10, 311.927 10 C 309.156 10, 309.740 6.840, 312.756 5.513 C 314.129 4.909, 315 3.648, 315 2.263 C 315 -0.034, 314.093 -0.319, 310.500 0.850 M 326.250 0.737 L 321 1.105 321 21.052 L 321 41 326.500 41 L 332 41 332 20.500 C 332 9.225, 331.887 0.083, 331.750 0.185 C 331.613 0.287, 329.137 0.535, 326.250 0.737 M 0 8.803 C 0 18.419, -0.225 18.214, 9.872 17.797 L 17.057 17.500 8.528 9.022 L 0 0.544 0 8.803 M 71.022 9.472 L 62.544 18 70.803 18 C 80.419 18, 80.214 18.225, 79.797 8.128 L 79.500 0.943 71.022 9.472 M 285 21 L 285 41 291 41 L 297 41 297 21 L 297 1 291 1 L 285 1 285 21 M 258 14.296 C 258 14.643, 257.107 17.193, 256.015 19.963 L 254.029 25 258.419 25 L 262.808 25 260.816 19.750 C 258.901 14.703, 258 12.959, 258 14.296 M 156.117 19.333 C 153.449 25.424, 153.308 25, 158 25 C 162.535 25, 162.718 24.416, 160.042 18.500 L 158.233 14.500 156.117 19.333 M 0 28.728 L 0 37.456 8.500 29 C 13.175 24.349, 17 20.422, 17 20.272 C 17 20.122, 13.175 20, 8.500 20 L 0 20 0 28.728 M 13 28.500 L 4.544 37 13.044 37 L 21.544 37 30 28.500 L 38.456 20 29.956 20 L 21.456 20 13 28.500 M 50 28.500 L 58.456 37 66.956 37 L 75.456 37 67 28.500 L 58.544 20 50.044 20 L 41.544 20 50 28.500 M 71 28.500 C 75.651 33.175, 79.578 37, 79.728 37 C 79.878 37, 80 33.175, 80 28.500 L 80 20 71.272 20 L 62.544 20 71 28.500 M 0 48.500 L 0 57 8.728 57 L 17.456 57 9 48.500 C 4.349 43.825, 0.422 40, 0.272 40 C 0.122 40, 0 43.825, 0 48.500 M 12 48.500 L 20.456 57 29.456 57 L 38.456 57 30 48.500 L 21.544 40 12.544 40 L 3.544 40 12 48.500 M 50 48.500 L 41.544 57 50.544 57 L 59.544 57 68 48.500 L 76.456 40 67.456 40 L 58.456 40 50 48.500 M 70.500 49 L 62.547 57 71.273 57 L 80 57 80 49 C 80 44.600, 79.652 41, 79.227 41 C 78.801 41, 74.874 44.600, 70.500 49 M 187.885 51.380 C 178.769 54.637, 174 61.443, 174 71.194 C 174 84.288, 181.921 92, 195.369 92 C 205.054 92, 215.066 85, 210.375 81.508 C 205.465 77.852, 204.305 77.647, 201.177 79.874 C 192.641 85.952, 182.608 77.777, 185.998 67.507 C 188.136 61.029, 195.917 58.787, 201.372 63.078 L 204.015 65.157 208.137 61.891 L 212.260 58.626 208.724 55.386 C 203.167 50.294, 195.207 48.763, 187.885 51.380 M 308.637 51.465 C 295.078 56.299, 290.468 75.296, 300.298 85.834 C 307.990 94.080, 324.146 94.162, 331.500 85.991 L 333.500 83.769 334.077 90.134 C 334.624 96.159, 334.659 96.019, 334.728 87.500 C 334.768 82.550, 334.508 79.537, 334.150 80.804 L 333.500 83.108 329.532 80.149 L 325.563 77.190 322.705 79.595 C 315.907 85.315, 307 80.567, 307 71.223 C 307 64.486, 310.116 61, 316.138 61 C 319.070 61, 321.062 61.649, 322.620 63.112 L 324.868 65.225 328.913 62.362 C 333.824 58.887, 333.940 57.812, 329.750 54.649 C 323.827 50.179, 315.687 48.952, 308.637 51.465 M 95 71.500 L 95 92 100.500 92 L 106 92 106 86 L 106 80 111.288 80 C 122.457 80, 129.531 73.378, 128.698 63.703 C 127.876 54.158, 122.072 51.015, 105.250 51.006 L 95 51 95 71.500 M 140.651 59.750 C 138.694 64.563, 135.046 73.388, 132.546 79.362 C 130.046 85.336, 128 90.623, 128 91.112 C 128 91.600, 130.479 92, 133.508 92 C 139.001 92, 139.021 91.989, 140.617 88 L 142.217 84 149.859 84.010 L 157.500 84.020 159.176 88.010 C 160.851 92, 160.852 92, 166.542 92 C 173.555 92, 173.764 93.531, 163.431 69.250 L 155.665 51 149.937 51 L 144.210 51 140.651 59.750 M 218.229 71.250 L 218.500 91.500 224.250 91.800 L 230 92.100 230 71.550 L 230 51 223.979 51 L 217.959 51 218.229 71.250 M 238 71.500 L 238 92 243.500 92 L 249 92 249 84.500 L 249 77 259 77 L 269 77 269 72.500 L 269 68 259 68 L 249 68 249 64.500 L 249 61 259.500 61 L 270 61 270 56 L 270 51 254 51 L 238 51 238 71.500 M 277 71.500 L 277 92 282.500 92 L 288 92 288 71.500 L 288 51 282.500 51 L 277 51 277 71.500 M 0 68.728 L 0 77.456 8.500 69 C 13.175 64.349, 17 60.422, 17 60.272 C 17 60.122, 13.175 60, 8.500 60 L 0 60 0 68.728 M 12 68.500 L 3.544 77 12.544 77 L 21.544 77 30 68.500 L 38.456 60 29.456 60 L 20.456 60 12 68.500 M 50 68.500 L 58.456 77 67.456 77 L 76.456 77 68 68.500 L 59.544 60 50.544 60 L 41.544 60 50 68.500 M 71 68.500 C 75.651 73.175, 79.578 77, 79.728 77 C 79.878 77, 80 73.175, 80 68.500 L 80 60 71.272 60 L 62.544 60 71 68.500 M 106.667 60.667 C 106.300 61.033, 106 63.508, 106 66.167 L 106 71 110.345 71 C 118.723 71, 120.993 63.203, 113.242 61.050 C 108.858 59.833, 107.575 59.758, 106.667 60.667 M 147.735 69.884 C 145.474 76.251, 145.381 76, 150 76 C 152.200 76, 154 75.587, 154 75.083 C 154 74.017, 150.217 65, 149.770 65 C 149.605 65, 148.689 67.198, 147.735 69.884 M 13 88.500 L 21.456 97 29.956 97 L 38.456 97 30 88.500 L 21.544 80 13.044 80 L 4.544 80 13 88.500 M 50 88.500 L 41.544 97 50.044 97 L 58.544 97 67 88.500 L 75.456 80 66.956 80 L 58.456 80 50 88.500 M 71 88.500 L 62.544 97 71.272 97 L 80 97 80 88.500 C 80 83.825, 79.878 80, 79.728 80 C 79.578 80, 75.651 83.825, 71 88.500 M 1 89 L 1 97 9.227 97 L 17.453 97 9.500 89 C 5.126 84.600, 1.424 81, 1.273 81 C 1.123 81, 1 84.600, 1 89 M 0.422 100.344 C 0.138 101.083, 0.040 104.920, 0.203 108.872 L 0.500 116.057 8.978 107.528 L 17.456 99 9.197 99 C 3.205 99, 0.796 99.369, 0.422 100.344 M 12.500 108 L 3.542 117 12.042 117 L 20.542 117 29.500 108 L 38.458 99 29.958 99 L 21.458 99 12.500 108 M 43 99.772 C 43 100.197, 46.722 104.247, 51.271 108.772 L 59.542 117 68 117 L 76.458 117 67.500 108 L 58.542 99 50.771 99 C 46.497 99, 43 99.347, 43 99.772 M 71.022 107.528 L 79.500 116.057 79.797 108.872 C 80.214 98.775, 80.419 99, 70.803 99 L 62.544 99 71.022 107.528 M 95 107.743 C 95 116.229, 100.083 119.917, 105 115 C 107.154 112.846, 107.989 102, 106 102 C 105.450 102, 105 104.420, 105 107.378 C 105 113.312, 103.571 115.361, 99.805 114.827 C 97.763 114.537, 97.465 113.873, 97.193 109 C 96.753 101.134, 95 100.129, 95 107.743 M 123 109.559 C 123 114.344, 123.367 116.891, 124 116.500 C 124.550 116.160, 125.005 113.546, 125.011 110.691 L 125.022 105.500 127.761 108.981 C 129.267 110.896, 131.498 113.596, 132.718 114.981 L 134.937 117.500 134.800 109.500 L 134.664 101.500 134.082 107.500 L 133.500 113.500 129.013 107.750 C 126.545 104.588, 124.183 102, 123.763 102 C 123.343 102, 123 105.402, 123 109.559 M 152.343 109.500 C 152.346 113.900, 152.522 115.576, 152.733 113.224 C 152.945 110.872, 152.942 107.272, 152.727 105.224 C 152.512 103.176, 152.339 105.100, 152.343 109.500 M 169 102.907 C 169 105.264, 175.156 117.240, 175.945 116.417 C 176.693 115.638, 182 103.287, 182 102.328 C 182 100.270, 179.969 103.250, 178.011 108.179 L 175.557 114.358 172.775 108.179 C 170.173 102.400, 169 100.761, 169 102.907 M 197.206 109.250 L 197.500 116.500 202.750 116.802 C 205.949 116.986, 208 116.693, 208 116.052 C 208 115.472, 205.982 115, 203.500 115 C 199.367 115, 199 114.796, 199 112.500 C 199 110.244, 199.396 110, 203.059 110 C 205.510 110, 206.873 109.604, 206.500 109 C 206.160 108.450, 204.334 108, 202.441 108 C 199.667 108, 199 107.613, 199 106 C 199 104.296, 199.667 104, 203.500 104 C 205.975 104, 208 103.550, 208 103 C 208 102.450, 205.505 102, 202.456 102 L 196.912 102 197.206 109.250 M 223 108.941 C 223 112.759, 223.450 116.160, 224 116.500 C 224.583 116.861, 225 115.844, 225 114.059 C 225 109.888, 228.045 109.965, 231.375 114.220 C 232.760 115.990, 234.215 117.118, 234.608 116.726 C 235 116.333, 234.574 115.187, 233.661 114.177 C 231.617 111.920, 231.595 111.262, 233.500 109.357 C 237.038 105.819, 233.887 102, 227.429 102 L 223 102 223 108.941 M 251.200 103.200 C 248.727 105.673, 249.891 108.024, 254.583 110.036 C 260.259 112.468, 259.981 114.538, 253.997 114.402 C 250.156 114.315, 249.893 114.449, 251.539 115.652 C 255.052 118.221, 260 116.420, 260 112.573 C 260 110.758, 259.082 109.850, 256 108.617 C 250.971 106.605, 250.507 103.765, 255.250 104.025 C 259.966 104.283, 260.682 104.087, 259 103 C 256.914 101.652, 252.638 101.762, 251.200 103.200 M 276 109.559 C 276 114.344, 276.367 116.891, 277 116.500 C 277.550 116.160, 278 112.759, 278 108.941 C 278 104.980, 277.571 102, 277 102 C 276.422 102, 276 105.186, 276 109.559 M 293 103 C 293 103.550, 294.125 104, 295.500 104 C 297.913 104, 298 104.229, 298 110.559 C 298 114.677, 298.372 116.888, 299 116.500 C 299.550 116.160, 300 113.209, 300 109.941 C 300 104.727, 300.237 104, 301.941 104 C 303.009 104, 304.160 103.550, 304.500 103 C 304.886 102.375, 302.844 102, 299.059 102 C 295.686 102, 293 102.443, 293 103 M 319 102.553 C 319 102.857, 320.125 104.762, 321.500 106.785 C 322.875 108.809, 324 111.683, 324 113.173 C 324 114.663, 324.450 116.160, 325 116.500 C 325.585 116.862, 326 115.820, 326 113.989 C 326 112.137, 327.244 109.052, 329.048 106.430 C 330.724 103.994, 331.641 102, 331.084 102 C 330.527 102, 328.968 103.625, 327.618 105.611 L 325.164 109.223 322.832 105.624 C 320.753 102.415, 319 101.011, 319 102.553 M 225 107 C 225 110.390, 228.031 111.161, 231.471 108.645 C 234.348 106.541, 232.740 104, 228.531 104 C 225.274 104, 225 104.233, 225 107" stroke="none" fill="currentColor" fill-rule="evenodd"/>
</svg>